# xmcd
#
# Track frame offsets:
# 150
# 18718
# 31168
# 50417
# 64267
# 81300
# 99261
# 113579
# 134899
# 154631
# 169325
# 197041
# 216977
# 229426
# 241990
#
# Disc length: 3512 seconds
#
#
# Revision: 0
# Processed by: cddbd v1.5.2PL0 Copyright (c) Steve Scherf et al.
# Submitted via: FreeRIP 2.951 
#
DISCID=d50db60f
DTITLE=Jewel - Lullaby
DYEAR=2009
DGENRE=Country
TTITLE0=Raven
TTITLE1=All the Animals
TTITLE2=Sweet Dreams
TTITLE3=Twinkle Twinkle Little Star
TTITLE4=Circle Song
TTITLE5=The Cowboy's Lament
TTITLE6=Daydream Land
TTITLE7=Sov Gott (Sleep Well)
TTITLE8=Dreamer
TTITLE9=Forever and a Day (Always)
TTITLE10=Gloria
TTITLE11=Somewhere Over The Rainbow
TTITLE12=Angel Standing By
TTITLE13=Simple Gifts
TTITLE14=Brahm's Lullaby
EXTD=
EXTT0=
EXTT1=
EXTT2=
EXTT3=
EXTT4=
EXTT5=
EXTT6=
EXTT7=
EXTT8=
EXTT9=
EXTT10=
EXTT11=
EXTT12=
EXTT13=
EXTT14=
PLAYORDER=
